<svg height="256px" width="256px" viewBox="0 0 256 256" xmlns="http://www.w3.org/2000/svg" xmlns:xlink="http://www.w3.org/1999/xlink">
  <g id="github">
    <path fill="#191717" d="M128,0C57.32,0,0,57.312,0,128c0,56.551,36.676,104.543,87.551,121.465c6.387,1.164,8.73-2.773,8.73-6.172c0-3.023-0.102-11.086-0.168-21.773c-35.605,7.734-43.121-17.164-43.121-17.164c-5.812-14.766-14.203-18.727-14.203-18.727c-11.613-7.922,0.879-7.766,0.879-7.766c12.84,0.891,19.594,13.188,19.594,13.188c11.418,19.555,29.969,13.906,37.25,10.641c1.164-8.273,4.48-13.922,8.125-17.109c-28.426-3.242-58.301-14.219-58.301-63.27c0-13.977,4.988-25.398,13.172-34.352c-1.309-3.234-5.707-16.25,1.254-33.859c0,0,10.75-3.465,35.199,13.098c10.215-2.836,21.164-4.25,32.051-4.301c10.887,0.051,21.816,1.465,32.035,4.301c24.453-16.562,35.18-13.098,35.18-13.098c6.992,17.609,2.586,30.637,1.273,33.859c8.203,8.938,13.156,20.375,13.156,34.352c0,49.176-29.93,60.004-58.43,63.168c4.57,3.961,8.688,11.773,8.688,23.711c0,17.125-0.164,30.914-0.164,35.109c0,3.438,2.305,7.406,8.805,6.164C219.375,232.488,256,184.543,256,128C256,57.312,198.672,0,128,0z"/>
  </g>
</svg>
