<svg height="256px" width="256px" viewBox="0 0 256 256" xmlns="http://www.w3.org/2000/svg" xmlns:xlink="http://www.w3.org/1999/xlink">
  <g id="meetup">
    <path fill="#ED1C40" d="M182.981,218.022c-5.076,3.506-6.35,10.462-2.84,15.535c3.506,5.071,10.463,6.347,15.543,2.841c5.074-3.508,6.343-10.463,2.838-15.537C195.015,215.786,188.055,214.517,182.981,218.022 M117.768,237.532c-3.132,2.163-3.917,6.453-1.754,9.583c2.164,3.132,6.457,3.917,9.589,1.754c3.132-2.164,3.917-6.457,1.753-9.589C125.192,236.15,120.899,235.367,117.768,237.532 M38.547,205.512c0.576,2.678,3.217,4.379,5.893,3.8c2.678-0.577,4.381-3.218,3.802-5.892c-0.579-2.678-3.217-4.378-5.895-3.803C39.671,200.197,37.969,202.833,38.547,205.512M19.465,128.814c3.332-4.857,2.097-11.494-2.762-14.825c-4.859-3.331-11.498-2.095-14.831,2.762c-3.332,4.857-2.096,11.494,2.763,14.823C9.495,134.906,16.133,133.67,19.465,128.814 M55.923,60.046c3.681-2.542,4.602-7.584,2.059-11.263c-2.542-3.68-7.588-4.6-11.268-2.059c-3.677,2.542-4.602,7.586-2.06,11.265C47.199,61.665,52.244,62.589,55.923,60.046 M80.064,10.383c-0.661-3.06-3.678-5.006-6.737-4.346c-3.064,0.661-5.011,3.676-4.349,6.738c0.66,3.06,3.676,5.005,6.738,4.346C78.78,16.461,80.728,13.442,80.064,10.383M152.344,17.873c-3.01-5.009-9.511-6.634-14.519-3.625c-5.012,3.005-6.633,9.503-3.626,14.512c3.01,5.01,9.51,6.631,14.519,3.625C153.728,29.376,155.35,22.878,152.344,17.873 M204.271,93.5c0.802-10.495-1.817-21.312-8.271-30.646c-12.578-18.195-35.543-24.869-55.412-17.666c-17.751-11.369-41.232-11.848-59.66,0.883C71.6,52.514,64.953,61.375,61.209,71.223c-5.425,0.736-10.774,2.549-15.588,5.875c-15.914,10.994-20.111,32.425-10.015,48.675c-13.702,12.545-16.861,33.436-6.45,49.57c6.176,9.571,15.876,15.333,26.294,17.046c0.193,7.811,2.536,15.649,7.31,22.557c13.056,18.887,38.96,23.618,57.853,10.567c0.721-0.5,1.279-1.134,1.96-1.669c10.531,9.397,26.338,10.946,38.463,2.572c6.47-4.469,10.606-10.971,12.411-18.037c9.488,0.352,19.146-2.06,27.558-7.869c20.177-13.938,25.587-41.189,12.683-61.752c10.359-8.734,12.591-24.012,4.632-35.29C214.77,98.435,209.749,95.131,204.271,93.5 M227.07,87.018c4.098-2.828,5.124-8.439,2.29-12.535c-2.828-4.097-8.441-5.121-12.54-2.291c-4.095,2.827-5.121,8.438-2.291,12.535C217.358,88.824,222.974,89.848,227.07,87.018M244.521,139.742c-0.783-3.623-4.351-5.92-7.971-5.143c-3.618,0.783-5.923,4.35-5.139,7.969c0.778,3.621,4.346,5.92,7.968,5.141C243,146.928,245.303,143.36,244.521,139.742 M255.887,107.423c-0.582-2.689-3.233-4.402-5.925-3.82c-2.696,0.583-4.405,3.232-3.829,5.927c0.585,2.689,3.238,4.399,5.93,3.82C254.755,112.768,256.469,110.114,255.887,107.423"/>
    <path fill="#FFFFFF" d="M180.098,173.986c-1.541-9.836-19.757-2.252-20.881-13.027c-1.593-15.291,21.149-48.247,19.356-61.041c-1.611-11.518-9.374-13.93-16.129-14.049c-6.562-0.118-8.295,0.928-10.514,2.217c-1.281,0.742-3.117,2.209-5.672-0.216c-1.695-1.615-2.816-2.745-4.611-4.176c-0.914-0.732-2.369-1.652-4.808-2.012c-2.44-0.357-5.601,0-7.606,0.858c-2.012,0.863-3.589,2.369-5.241,3.805c-1.649,1.436-5.837,6.122-9.741,4.393c-1.692-0.747-7.424-3.611-11.561-5.401c-7.987-3.456-19.505,2.144-23.653,9.515c-6.171,10.967-18.357,54.053-20.202,59.732c-4.137,12.759,5.245,23.162,17.896,22.562c5.351-0.252,8.908-2.207,12.288-8.35c1.954-3.547,20.298-51.448,21.662-53.747c0.989-1.666,4.29-3.863,7.09-2.43c2.796,1.436,3.355,4.426,2.942,7.245c-0.671,4.56-13.608,33.781-14.105,37.089c-0.843,5.621,1.83,8.748,7.666,9.053c4.002,0.213,7.987-1.225,11.153-7.191c1.771-3.338,22.173-44.186,23.979-46.914c1.984-2.991,3.578-3.978,5.601-3.871c1.567,0.077,4.076,0.479,3.45,5.178c-0.617,4.607-17.02,34.582-18.74,41.921c-2.302,9.812,3.084,19.748,11.958,24.1C157.333,182.002,182.096,186.754,180.098,173.986"/>
  </g>
</svg>
