<svg height="256px" width="256px" viewBox="0 0 256 256" xmlns="http://www.w3.org/2000/svg" xmlns:xlink="http://www.w3.org/1999/xlink">
  <g id="slack">
    <path fill="#E01E5A" d="M53.785,161.771c0,14.803-12.092,26.893-26.893,26.893C12.092,188.666,0,176.574,0,161.771s12.092-26.893,26.893-26.893h26.892V161.771L53.785,161.771z"/>
    <path fill="#E01E5A" d="M67.335,161.771c0-14.803,12.091-26.893,26.893-26.893c14.801,0,26.893,12.09,26.893,26.893v67.336c0,14.801-12.092,26.893-26.893,26.893c-14.802,0-26.893-12.092-26.893-26.893V161.771z"/>
    <path fill="#36C5F0" d="M94.229,53.785c-14.802,0-26.893-12.091-26.893-26.893S79.427,0,94.229,0c14.801,0,26.893,12.091,26.893,26.893v26.893H94.229z"/>
    <path fill="#36C5F0" d="M94.229,67.336c14.801,0,26.893,12.091,26.893,26.893s-12.092,26.894-26.893,26.894H26.893C12.092,121.123,0,109.031,0,94.229s12.092-26.893,26.893-26.893H94.229L94.229,67.336z"/>
    <path fill="#2EB67D" d="M202.215,94.229c0-14.802,12.092-26.893,26.893-26.893c14.802,0,26.893,12.091,26.893,26.893s-12.091,26.894-26.893,26.894h-26.893V94.229z"/>
    <path fill="#2EB67D" d="M188.665,94.229c0,14.802-12.091,26.894-26.894,26.894c-14.801,0-26.893-12.092-26.893-26.894V26.893C134.879,12.091,146.971,0,161.771,0s26.893,12.091,26.893,26.893L188.665,94.229L188.665,94.229z"/>
    <path fill="#ECB22E" d="M161.771,202.215c14.803,0,26.894,12.092,26.894,26.895c0,14.801-12.091,26.891-26.894,26.891c-14.801,0-26.893-12.092-26.893-26.893v-26.893H161.771L161.771,202.215z"/>
    <path fill="#ECB22E" d="M161.771,188.666c-14.801,0-26.893-12.092-26.893-26.895c0-14.801,12.092-26.893,26.893-26.893h67.336c14.802,0,26.893,12.092,26.893,26.893c0,14.803-12.091,26.895-26.893,26.895H161.771z"/>
  </g>
</svg>
