<svg height="256px" width="256px" viewBox="0 0 256 256" xmlns="http://www.w3.org/2000/svg" xmlns:xlink="http://www.w3.org/1999/xlink">
  <g id="twitter">
    <path fill="#1DA1F2" d="M81.871,231.221c96.207,0,148.672-79.504,148.672-148.672v-6.367c9.57-7.926,18.289-16.672,25.457-27.008c-9.543,3.977-19.855,7.16-30.184,7.953c11.129-6.363,19.062-16.699,23.047-28.633c-10.359,6.359-21.48,10.336-33.406,12.719c-19.84-20.672-52.488-22.262-73.938-2.383c-13.504,12.719-19.031,31.809-15.055,50.098C85.055,86.541,46.113,66.67,19.078,34.068C5.566,57.92,11.91,88.135,34.977,104.037c-7.961,0-16.703-2.383-23.848-6.359v0.801c0,24.656,17.488,46.105,42.152,50.879c-7.953,2.383-15.906,2.383-23.848,0.809c7.168,21.488,26.23,35.793,48.496,36.559c-18.297,14.344-41.355,22.297-65.211,22.297c-3.977,0-7.949,0-12.719-0.832C25.434,223.287,53.258,231.221,81.871,231.221"/>
  </g>
</svg>
