<svg version="1.1" xmlns="http://www.w3.org/2000/svg" xmlns:xlink="http://www.w3.org/1999/xlink" width="180px" height="32px" viewBox="0 0 180 32">
  <g id="browserstack">
    <g>
      <path fill="#ECB460" d="M31.035,16c0,8.57-6.947,15.518-15.518,15.518C6.947,31.518,0,24.57,0,16C0,7.43,6.947,0.482,15.517,0.482C24.087,0.482,31.035,7.43,31.035,16"/>
      <path fill="#D76935" d="M26.896,14.448c0,7.712-6.021,13.966-13.448,13.966C6.021,28.414,0,22.16,0,14.448C0,6.735,6.021,0.482,13.448,0.482C20.875,0.482,26.896,6.735,26.896,14.448"/>
      <path fill="#D33C41" d="M27.931,12.896c0,6.856-5.327,12.415-11.897,12.415c-6.57,0-11.896-5.559-11.896-12.415S9.464,0.482,16.034,0.482C22.604,0.482,27.931,6.04,27.931,12.896"/>
      <path fill="#B6CB45" d="M26.896,13.931c0,6.284-4.863,11.379-10.862,11.379S5.172,20.215,5.172,13.931c0-6.285,4.863-11.379,10.862-11.379S26.896,7.646,26.896,13.931"/>
      <path fill="#66AD48" d="M25.862,14.965c0,5.713-4.632,10.346-10.345,10.346S5.172,20.678,5.172,14.965S9.804,4.62,15.517,4.62S25.862,9.252,25.862,14.965"/>
      <path fill="#AFD7DC" d="M21.724,12.896c0,4.571-3.705,8.276-8.276,8.276c-4.571,0-8.276-3.705-8.276-8.276c0-4.57,3.705-8.276,8.276-8.276C18.019,4.62,21.724,8.326,21.724,12.896"/>
      <path fill="#5CB1CF" d="M22.759,11.862c0,3.999-3.242,7.242-7.242,7.242s-7.241-3.243-7.241-7.242c0-4,3.242-7.242,7.241-7.242S22.759,7.862,22.759,11.862"/>
      <path fill="#26A8C3" d="M22.759,12.379c0,3.713-2.779,6.725-6.207,6.725c-3.428,0-6.207-3.011-6.207-6.725s2.779-6.724,6.207-6.724C19.98,5.655,22.759,8.666,22.759,12.379"/>
      <path d="M20.689,13.413c0,3.144-2.315,5.69-5.172,5.69c-2.856,0-5.172-2.549-5.172-5.69c0-3.142,2.316-5.689,5.172-5.689C18.374,7.724,20.689,10.271,20.689,13.413"/>
      <path fill="#1C1B19" d="M15.517,19.104c-2.856,0-5.172-2.547-5.172-5.689c0-3.142,2.316-5.689,5.172-5.689c2.857,0,5.172,2.547,5.172,5.689C20.689,16.557,18.374,19.104,15.517,19.104z"/>
      <path fill="#FFFFFF" d="M18.339,11.773c-0.492,0.823-1.459,1.299-2.161,1.062c-0.702-0.236-0.872-1.096-0.38-1.919c0.492-0.824,1.459-1.299,2.161-1.063C18.662,10.09,18.831,10.949,18.339,11.773"/>
    </g>
    <g>
      <path d="M44.663,21.46h3.511c1.632,0,2.547-0.88,2.547-2.198c0-1.295-0.915-2.174-2.547-2.174h-3.511c-0.099,0-0.148,0.046-0.148,0.139v4.095C44.514,21.413,44.563,21.46,44.663,21.46z M48.026,14.681c1.484,0,2.399-0.833,2.399-2.06c0-1.249-0.915-2.081-2.399-2.081h-3.363c-0.099,0-0.148,0.046-0.148,0.139v3.863c0,0.092,0.05,0.139,0.148,0.139H48.026z M41.597,8.366c0-0.14,0.099-0.231,0.247-0.231H48.1c3.561,0,5.242,1.666,5.242,4.188c0,1.781-0.89,2.8-1.954,3.332V15.7c1.039,0.37,2.25,1.619,2.25,3.539c0,3.123-2.102,4.627-5.786,4.627h-6.009c-0.148,0-0.247-0.092-0.247-0.23L41.597,8.366L41.597,8.366z"/>
      <path d="M55.69,23.865c-0.148,0-0.248-0.092-0.248-0.23V12.946c0-0.14,0.099-0.231,0.248-0.231h2.275c0.148,0,0.247,0.093,0.247,0.231v0.947h0.025c0.568-0.854,1.583-1.434,3.091-1.434c0.939,0,1.879,0.347,2.498,0.925c0.124,0.115,0.148,0.209,0.049,0.324l-1.311,1.55c-0.099,0.115-0.223,0.14-0.346,0.046c-0.544-0.322-1.113-0.53-1.755-0.53c-1.558,0-2.25,1.04-2.25,2.821v6.038c0,0.14-0.099,0.23-0.247,0.23L55.69,23.865"/>
      <path d="M71.478,20.349c0.198-0.578,0.247-1.11,0.247-2.06s-0.05-1.456-0.247-2.058c-0.347-0.927-1.113-1.457-2.226-1.457c-1.113,0-1.904,0.53-2.25,1.457c-0.198,0.602-0.248,1.109-0.248,2.059s0.05,1.48,0.248,2.06c0.346,0.926,1.137,1.457,2.25,1.457C70.365,21.807,71.131,21.274,71.478,20.349z M64.332,21.043c-0.272-0.786-0.396-1.526-0.396-2.753c0-1.226,0.124-1.966,0.396-2.753c0.667-1.942,2.497-3.076,4.92-3.076c2.398,0,4.228,1.134,4.896,3.076c0.272,0.787,0.396,1.527,0.396,2.753c0,1.227-0.124,1.967-0.396,2.753c-0.668,1.943-2.498,3.077-4.896,3.077C66.829,24.12,64.999,22.986,64.332,21.043z"/>
      <path d="M86.539,23.865c-0.149,0-0.248-0.092-0.297-0.23l-2.299-7.125h-0.049l-2.324,7.125c-0.05,0.14-0.148,0.23-0.297,0.23h-2.027c-0.148,0-0.247-0.092-0.296-0.23l-3.761-10.688c-0.05-0.14,0.025-0.231,0.173-0.231h2.374c0.173,0,0.272,0.069,0.321,0.231l2.3,7.355h0.049l2.275-7.355c0.05-0.14,0.173-0.231,0.321-0.231h1.781c0.148,0,0.272,0.093,0.321,0.231l2.423,7.355h0.049l2.176-7.355c0.049-0.162,0.148-0.231,0.321-0.231h2.374c0.148,0,0.224,0.093,0.173,0.231l-3.758,10.688c-0.049,0.14-0.148,0.23-0.296,0.23L86.539,23.865"/>
      <path d="M93.108,22.361c-0.098-0.093-0.098-0.23,0-0.323l1.41-1.388c0.099-0.094,0.247-0.094,0.346,0c0.865,0.739,2.25,1.271,3.486,1.271c1.459,0,2.201-0.555,2.201-1.318c0-0.671-0.42-1.087-1.979-1.227l-1.285-0.115c-2.424-0.229-3.659-1.388-3.659-3.285c0-2.15,1.655-3.516,4.625-3.516c1.854,0,3.411,0.578,4.475,1.364c0.124,0.093,0.124,0.23,0.05,0.324l-1.212,1.364c-0.099,0.115-0.223,0.115-0.346,0.046c-0.742-0.485-1.93-0.926-3.115-0.926c-1.188,0-1.806,0.486-1.806,1.157c0,0.646,0.421,1.041,1.954,1.18l1.284,0.116c2.498,0.23,3.686,1.434,3.686,3.262c0,2.222-1.731,3.771-4.995,3.771C95.778,24.12,94.099,23.217,93.108,22.361"/>
      <path d="M112.314,16.092c-0.321-0.901-1.212-1.435-2.324-1.435c-1.138,0-2.027,0.532-2.349,1.435c-0.101,0.277-0.148,0.557-0.148,0.948c0,0.093,0.05,0.139,0.148,0.139h4.673c0.099,0,0.148-0.046,0.148-0.139C112.463,16.648,112.412,16.37,112.314,16.092z M105.117,21.019c-0.246-0.717-0.42-1.571-0.42-2.729c0-1.156,0.148-2.035,0.396-2.753c0.667-1.942,2.496-3.076,4.871-3.076c2.446,0,4.229,1.18,4.896,3.076c0.272,0.787,0.396,1.551,0.396,3.354c0,0.14-0.1,0.23-0.271,0.23h-7.344c-0.101,0-0.148,0.047-0.148,0.139c0,0.324,0.074,0.603,0.172,0.855c0.396,1.088,1.337,1.688,2.672,1.688s2.201-0.463,2.794-1.063c0.125-0.115,0.248-0.14,0.371-0.046l1.459,1.203c0.124,0.093,0.124,0.208,0.024,0.322c-1.014,1.111-2.695,1.897-4.896,1.897C107.567,24.12,105.785,22.963,105.117,21.019z"/>
      <path d="M117.308,23.865c-0.148,0-0.246-0.092-0.246-0.23V12.946c0-0.14,0.098-0.231,0.246-0.231h2.274c0.148,0,0.247,0.093,0.247,0.231v0.947h0.024c0.568-0.854,1.583-1.434,3.092-1.434c0.939,0,1.879,0.347,2.497,0.925c0.124,0.115,0.147,0.209,0.05,0.324l-1.311,1.55c-0.101,0.115-0.223,0.14-0.347,0.046c-0.545-0.322-1.112-0.53-1.756-0.53c-1.559,0-2.251,1.04-2.251,2.821v6.038c0,0.14-0.099,0.23-0.247,0.23L117.308,23.865"/>
      <path d="M125.919,22.038c-0.101-0.093-0.148-0.231-0.05-0.347l1.533-1.666c0.1-0.115,0.246-0.115,0.346-0.023c1.089,0.811,2.695,1.666,4.575,1.666c2.002,0,3.164-0.949,3.164-2.268c0-1.134-0.74-1.873-3.064-2.175l-0.891-0.115c-3.239-0.416-5.069-1.874-5.069-4.488c0-2.845,2.226-4.742,5.688-4.742c2.102,0,4.104,0.625,5.439,1.573c0.123,0.093,0.148,0.186,0.049,0.324l-1.188,1.712c-0.099,0.114-0.223,0.139-0.346,0.068c-1.359-0.833-2.621-1.227-4.031-1.227c-1.706,0-2.646,0.88-2.646,2.104c0,1.088,0.814,1.827,3.091,2.129l0.891,0.115c3.238,0.416,5.02,1.852,5.02,4.558c0,2.8-2.15,4.882-6.33,4.882C129.628,24.12,127.229,23.195,125.919,22.038"/>
      <path d="M143.555,24.062c-2.397,0-3.313-1.088-3.313-3.262v-5.876c0-0.093-0.049-0.14-0.147-0.14h-0.791c-0.147,0-0.247-0.092-0.247-0.231v-1.55c0-0.139,0.1-0.23,0.247-0.23h0.791c0.101,0,0.147-0.047,0.147-0.14V9.58c0-0.139,0.101-0.231,0.248-0.231h2.274c0.147,0,0.247,0.094,0.247,0.231v3.054c0,0.093,0.049,0.14,0.148,0.14h1.582c0.147,0,0.248,0.093,0.248,0.23v1.55c0,0.141-0.101,0.231-0.248,0.231h-1.582c-0.101,0-0.148,0.047-0.148,0.14v5.783c0,0.786,0.348,1.041,1.113,1.041h0.617c0.147,0,0.248,0.093,0.248,0.231v1.85c0,0.14-0.101,0.231-0.248,0.231H143.555"/>
      <path d="M153.745,20.117v-0.856c0-0.092-0.049-0.139-0.148-0.139h-1.979c-1.779,0-2.57,0.463-2.57,1.504c0,0.926,0.717,1.389,2.052,1.389C152.806,22.015,153.745,21.39,153.745,20.117z M154.042,23.865c-0.148,0-0.247-0.092-0.247-0.23v-0.811h-0.024c-0.568,0.764-1.682,1.296-3.363,1.296c-2.176,0-4.006-1.063-4.006-3.401c0-2.429,1.83-3.539,4.772-3.539h2.423c0.1,0,0.148-0.046,0.148-0.139v-0.532c0-1.272-0.644-1.852-2.646-1.852c-1.335,0-2.15,0.347-2.72,0.764c-0.124,0.093-0.272,0.069-0.347-0.047l-0.916-1.526c-0.073-0.114-0.049-0.23,0.051-0.301c0.964-0.646,2.273-1.087,4.229-1.087c3.637,0,4.971,1.156,4.971,3.887v7.287c0,0.14-0.1,0.23-0.246,0.23L154.042,23.865L154.042,23.865z"/>
      <path d="M158.542,21.043c-0.248-0.693-0.371-1.572-0.371-2.753c0-1.18,0.123-2.059,0.371-2.753c0.691-1.989,2.521-3.076,4.92-3.076c1.779,0,3.189,0.67,4.129,1.734c0.074,0.093,0.1,0.23-0.023,0.323l-1.559,1.272c-0.123,0.092-0.247,0.069-0.346-0.047c-0.594-0.624-1.211-0.971-2.201-0.971c-1.062,0-1.879,0.484-2.227,1.457c-0.197,0.556-0.246,1.202-0.246,2.059c0,0.855,0.049,1.527,0.246,2.083c0.348,0.947,1.164,1.434,2.227,1.434c0.99,0,1.607-0.347,2.201-0.972c0.099-0.116,0.223-0.116,0.346-0.022l1.559,1.271c0.123,0.093,0.1,0.209,0.023,0.324c-0.939,1.041-2.35,1.712-4.129,1.712C161.063,24.12,159.233,23.033,158.542,21.043"/>
      <path d="M177.245,23.865c-0.172,0-0.297-0.067-0.396-0.23l-3.019-4.674l-1.605,1.735v2.938c0,0.14-0.099,0.23-0.247,0.23h-2.274c-0.148,0-0.248-0.092-0.248-0.23V8.366c0-0.14,0.1-0.231,0.248-0.231h2.274c0.148,0,0.247,0.093,0.247,0.231v9.067l4.08-4.487c0.146-0.162,0.271-0.231,0.471-0.231h2.521c0.148,0,0.197,0.139,0.099,0.231l-3.782,4.07l4.352,6.617c0.074,0.092,0.025,0.23-0.123,0.23L177.245,23.865"/>
    </g>
  </g>
</svg>
