<svg version="1.1" xmlns="http://www.w3.org/2000/svg" xmlns:xlink="http://www.w3.org/1999/xlink" viewBox="0 0 256 256">
  <g id="linkedin">
    <path fill="#067CB6" d="M237.039,0H18.891C8.484,0,0,8.27,0,18.441v219.098C0,247.734,8.469,256,18.891,256h218.148c10.438,0,18.961-8.266,18.961-18.461V18.441C256,8.27,247.477,0,237.039,0z M75.906,218.141H37.875V95.977h38.031V218.141zM56.891,79.273c-12.195,0-22.039-9.867-22.039-22.023c0-12.148,9.844-22.004,22.039-22.004c12.156,0,22.031,9.867,22.031,22.004C78.922,69.406,69.062,79.273,56.891,79.273z M218.188,218.141h-37.953v-59.422c0-14.141-0.266-32.383-19.75-32.383c-19.773,0-22.797,15.438-22.797,31.367v60.438H99.734V95.977h36.438v16.688h0.531c5.062-9.598,17.453-19.734,35.945-19.734c38.445,0,45.555,25.301,45.555,58.195v67.016H218.188L218.188,218.141z"/>
  </g>
</svg>
