<svg xmlns="http://www.w3.org/2000/svg" viewBox="0 0 256 256">
<!--
  Puxl logo
  Created by @MrKanuel, brought by The Puxl Clan with love from Basque Country
  https://puxl.io
-->

  <g id="puxl">
    <path fill="#FFFFFF" stroke="#595959" stroke-width="2" stroke-linecap="round" stroke-linejoin="round" stroke-miterlimit="10" d="M225.761,155.997c0.123-1.935-2.271-3.82-6.074-0.857c-4.082,3.182-4.764,3.857-7.709,3.857c-6.826,0-8.979-7.795-8.979-31s4.153-31,10.979-31c5.951,0,7.676,2.394,9.71,4.858c4.862,5.893,8.16,4.193,8.552-1.857c0.969-15.146-1.218-43.894-3.24-73.001c-29.301,2.037-57.759,4.217-73.002,3.24c-6.051-0.388-7.75-3.689-1.858-8.548c2.465-2.033,4.859-3.759,4.859-9.71c0-6.828-7.794-10.98-31-10.98s-31,2.152-31,8.981c0,2.941,0.677,3.624,3.859,7.708c2.961,3.8,1.077,6.197-0.859,6.071c-15.146-0.969-43.892,1.219-73.001,3.241c2.038,29.301,4.217,57.757,3.241,73.001c-0.125,1.934,2.271,3.817,6.072,0.857c4.083-3.184,4.769-3.858,7.709-3.858c6.829,0,8.982,7.795,8.982,31s-4.153,31-10.981,31c-5.951,0-7.676-2.394-9.708-4.857c-4.859-5.894-8.162-4.194-8.551,1.857c-0.97,15.146,1.219,43.892,3.24,73c29.301-2.038,57.759-4.218,73-3.24c6.052,0.387,7.75,3.69,1.859,8.547c-2.465,2.033-4.859,3.759-4.859,9.71c0,6.831,7.794,10.982,31,10.982s31-2.152,31-8.982c0-2.94-0.675-3.623-3.858-7.709c-2.963-3.799-1.077-6.198,0.858-6.071c15.146,0.971,43.892-1.217,73-3.239C226.965,199.696,224.785,171.24,225.761,155.997z"/>
    <path fill="#000" d="M128,142.257c0,0,2.229,0,3.887,5.541l13.341,40.532c1.115,2.777,4.437,4.433,7.229,3.319c2.774-1.108,4.51-4.43,3.34-7.21l-13.342-39.413c-2.229-6.106-3.342-13.306-3.342-19.983v-14.977c0-2.044,0.424-7.738,6.612-8.453c13.743-1.622,26.958-4.251,27.798-4.418c3.016-0.595,4.975-3.52,4.366-6.525c-0.598-3.006-3.594-4.959-6.529-4.357c-0.268,0.052-27.448,5.438-43.36,5.438c-15.921,0-43.083-5.385-43.358-5.438c-3-0.606-5.939,1.352-6.535,4.354c-0.598,3.009,1.351,5.927,4.357,6.522c0.8,0.167,14.076,2.798,27.819,4.417c6.169,0.723,6.605,6.416,6.605,8.46v14.977c0,6.676-1.115,13.876-3.333,19.983l-13.334,39.413c-1.109,2.781,0.556,6.102,3.335,7.21c2.771,1.114,6.115-0.542,7.216-3.319l13.341-40.538C125.772,142.257,128,142.257,128,142.257z"/>
    <path fill="#000" d="M128,64c6.135,0,11.114,4.97,11.114,11.101c0,6.133-4.979,11.101-11.114,11.101c-6.135,0-11.112-4.969-11.112-11.101
		C116.888,68.971,121.865,64,128,64z"/>
  </g>
</svg>
