<svg version="1.1" xmlns="http://www.w3.org/2000/svg" xmlns:xlink="http://www.w3.org/1999/xlink" height="256px" width="256px" viewBox="0 0 256 256">
  <g id="reddit">
    <path fill="#F04B23" d="M128,0c70.688,0,128,57.309,128,128c0,70.688-57.312,128-128,128S0,198.688,0,128C0,57.309,57.312,0,128,0z"/>
    <path fill="#FFFFFF" d="M213.328,128c0-10.332-8.375-18.715-18.703-18.715c-5.094,0-9.586,1.949-12.875,5.238c-12.734-9.129-30.391-15.117-49.859-15.867l8.531-39.973l27.703,5.84c0.297,7.035,6.133,12.727,13.32,12.727c7.336,0,13.32-5.988,13.32-13.324s-5.984-13.324-13.32-13.324c-5.242,0-9.727,2.992-11.828,7.484L138.625,51.5c-0.891-0.148-1.797,0-2.539,0.449c-0.75,0.449-1.195,1.199-1.5,2.094l-9.43,44.613c-19.914,0.598-37.727,6.438-50.602,15.871c-3.289-3.145-7.93-5.242-12.875-5.242c-10.328,0-18.711,8.387-18.711,18.715c0,7.641,4.484,14.078,11.078,17.062c-0.297,1.797-0.453,3.75-0.453,5.695c0,28.742,33.391,51.945,74.703,51.945c41.328,0,74.703-23.203,74.703-51.945c0-1.945-0.148-3.742-0.445-5.539C208.688,142.219,213.328,135.633,213.328,128z M85.328,141.328c0-7.344,6-13.328,13.328-13.328c7.336,0,13.328,5.984,13.328,13.328c0,7.328-5.992,13.32-13.328,13.32S85.328,148.656,85.328,141.328z M159.734,176.5c-9.125,9.141-26.5,9.734-31.586,9.734s-22.602-0.75-31.586-9.734c-1.344-1.344-1.344-3.586,0-4.938c1.344-1.344,3.594-1.344,4.938,0c5.688,5.688,17.969,7.789,26.797,7.789c8.836,0,20.961-2.102,26.797-7.789c1.352-1.344,3.594-1.344,4.945,0C161.086,173.062,161.086,175.156,159.734,176.5z M157.344,154.648c-7.336,0-13.328-5.992-13.328-13.32c0-7.344,5.992-13.328,13.328-13.328s13.328,5.984,13.328,13.328C170.672,148.656,164.68,154.648,157.344,154.648z"/>
  </g>
</svg>
